<?xml version="1.0" standalone="no"?><!DOCTYPE svg PUBLIC "-//W3C//DTD SVG 1.1//EN" "http://www.w3.org/Graphics/SVG/1.1/DTD/svg11.dtd"><svg t="1531401822456" class="icon" style="" viewBox="0 0 1024 1024" version="1.1" xmlns="http://www.w3.org/2000/svg" p-id="11137" xmlns:xlink="http://www.w3.org/1999/xlink" width="200" height="200"><defs><style type="text/css"></style></defs><path d="M524.23555821 868.39317396c-108.29770663 0-210.60779967-42.69428817-287.92611427-120.01260275-77.31831459-77.31831459-120.01260278-179.62840764-120.0126028-287.92611425s42.69428817-210.60779967 120.0126028-287.92611429c77.31831459-77.31831459 179.62840764-120.01260278 287.92611427-120.01260276 107.51671358 0 212.69044787 43.47528127 288.44677632 119.49194073l23.16946126 23.16946128-290.26909349 286.88479013-45.81826051-46.33892255 242.62851583-240.02520554c-60.91745999-50.24388794-139.01676766-78.35963869-218.15739941-78.35963872-189.00032457 0-343.11629169 153.8556361-343.11629168 343.11629172 0 189.00032457 153.8556361 343.11629169 343.11629168 343.11629166s343.11629169-153.8556361 343.11629168-343.11629166c0-26.81409563-3.1239723-53.62819129-9.37191693-79.66129385l63.26043921-15.09919946c7.2892687 30.97939203 11.19423409 62.73977717 11.19423409 94.76049331 0 108.29770663-42.69428817 210.60779967-120.01260276 287.92611425-77.57864562 77.31831459-179.88873866 120.01260278-288.18644529 120.01260275z" fill="#707070" p-id="11138"></path><path d="M405.26427952 251.40864342m-14.57853744 0a14.57853743 14.57853743 0 1 0 29.15707487 0 14.57853743 14.57853743 0 1 0-29.15707487 0Z" fill="#707070" p-id="11139"></path><path d="M759.05414325 410.9915621m-37.74799871 0a37.74799869 37.74799869 0 1 0 75.49599742 0 37.74799869 37.74799869 0 1 0-75.49599742 0Z" fill="#707070" p-id="11140"></path><path d="M535.69012332 286.29300084m-28.89674382 0a28.89674384 28.89674384 0 1 0 57.79348766 0 28.89674384 28.89674384 0 1 0-57.79348766 0Z" fill="#707070" p-id="11141"></path><path d="M567.71083949 184.76390087m-23.16946129 0a23.16946129 23.16946129 0 1 0 46.33892253 0 23.16946129 23.16946129 0 1 0-46.33892253 0Z" fill="#707070" p-id="11142"></path><path d="M690.84741455 519.80993077m-13.01655126 0a13.01655127 13.01655127 0 1 0 26.03310256 0 13.01655127 13.01655127 0 1 0-26.03310256 0Z" fill="#707070" p-id="11143"></path></svg>